<svg xmlns="http://www.w3.org/2000/svg" width="82.259" height="85.79" viewBox="0 0 82.259 85.79"><defs><style>.a{fill:#1dbfdc;}.b{fill:#fff;font-size:14px;font-family:Raleway-Bold, Raleway;font-weight:700;}</style></defs><g transform="translate(-1092 -702.845)"><path class="a" d="M65.45,77.781,1.77,10.755A6.446,6.446,0,0,1,.472,3.89,5.9,5.9,0,0,1,6,0H62.913q.776,0,1.514.018Q64.645,0,64.868,0h5.755a5,5,0,0,1,5,5V8.244q.043.612.043,1.284v63.8a6.212,6.212,0,0,1-3.695,5.81,5.69,5.69,0,0,1-6.522-1.361Z" transform="translate(1092 709)"/><text class="b" transform="translate(1132.54 702.845) rotate(45)"><tspan x="13.986" y="13">Best</tspan><tspan x="9.282" y="29">Seller</tspan></text></g></svg>