<svg xmlns="http://www.w3.org/2000/svg" width="81.016" height="85.527" viewBox="0 0 81.016 85.527"><defs><style>.a{fill:#e7246b;}.b{fill:#fff;font-size:14px;font-family:Raleway-Bold, Raleway;font-weight:700;}</style></defs><g transform="translate(-1092 -703.109)"><path class="a" d="M66.415,77.781,1.8,10.755A6.374,6.374,0,0,1,.479,3.89,5.983,5.983,0,0,1,6.087,0H63.84q.761,0,1.485.017Q65.536,0,65.751,0h5.987a5,5,0,0,1,5,5V8.23q.045.618.045,1.3v63.8a6.209,6.209,0,0,1-3.749,5.81,5.97,5.97,0,0,1-2.364.494A5.881,5.881,0,0,1,66.415,77.781Z" transform="translate(1092 709)"/><text class="b" transform="translate(1131.297 703.109) rotate(45)"><tspan x="17.446" y="13">Hot</tspan><tspan x="14.184" y="29">Item</tspan></text></g></svg>