<svg xmlns="http://www.w3.org/2000/svg" width="76.486" height="79.565" viewBox="0 0 76.486 79.565"><defs><style>.a{fill:#dcb81d;}.b{fill:#fff;font-size:14px;font-family:Raleway-Bold, Raleway;font-weight:700;}</style></defs><g transform="translate(-1092 -709)"><path class="a" d="M66.085,77.712,1.787,10.745A6.389,6.389,0,0,1,.476,3.886,5.956,5.956,0,0,1,6.056,0H63.523q.766,0,1.5.018Q65.232,0,65.45,0h5.908a5,5,0,0,1,5,5V8.229q.044.615.044,1.29V73.267a6.2,6.2,0,0,1-3.73,5.805,5.912,5.912,0,0,1-2.352.493A5.841,5.841,0,0,1,66.085,77.712Z" transform="translate(1092 709)"/><text class="b" transform="translate(1126.767 709.485) rotate(45)"><tspan x="14.226" y="13">New</tspan></text></g></svg>