<svg xmlns="http://www.w3.org/2000/svg" width="54" height="32" viewBox="0 0 54 32"><defs><style>.a{fill:#e7246b;}.b{fill:#fff;}</style></defs><g transform="translate(-375 -1106.538)"><g transform="translate(375 1106.538)"><rect class="a" width="54" height="32" rx="16"/></g><g transform="translate(-287.973 902.038)"><path class="b" d="M15.523,1.468A4.534,4.534,0,0,0,12.151,0,4.241,4.241,0,0,0,9.5.914,5.42,5.42,0,0,0,8.43,2.033,5.417,5.417,0,0,0,7.359.914,4.241,4.241,0,0,0,4.71,0,4.534,4.534,0,0,0,1.338,1.468,5.27,5.27,0,0,0,0,5.067,6.275,6.275,0,0,0,1.673,9.175,35.658,35.658,0,0,0,5.859,13.1c.58.494,1.237,1.055,1.92,1.651a.99.99,0,0,0,1.3,0c.683-.6,1.34-1.158,1.921-1.652a35.638,35.638,0,0,0,4.186-3.929A6.275,6.275,0,0,0,16.86,5.067a5.27,5.27,0,0,0-1.338-3.6Zm0,0" transform="translate(681.972 213)"/></g></g></svg>