<svg xmlns="http://www.w3.org/2000/svg" xmlns:xlink="http://www.w3.org/1999/xlink" width="19.958" height="20" viewBox="0 0 19.958 20"><defs><style>.a{fill:none;}.b{clip-path:url(#a);}.c{fill:#74b71b;}</style><clipPath id="a"><rect class="a" width="19.958" height="20"/></clipPath></defs><g class="b"><path class="c" d="M-602.821,236.4h0a1.932,1.932,0,0,1-1.937-1.937,1.906,1.906,0,0,1,1.937-1.937,1.906,1.906,0,0,1,1.937,1.937A1.988,1.988,0,0,1-602.821,236.4Zm0-2.611a.665.665,0,0,0-.674.674.665.665,0,0,0,.674.674.665.665,0,0,0,.674-.674A.723.723,0,0,0-602.821,233.789Zm8.674,1.305h-.632a8.729,8.729,0,0,1-8.042-5.474,8.859,8.859,0,0,1-8.042,5.474h-.631v-.632a8.648,8.648,0,0,1,5.432-8.042,8.668,8.668,0,0,1-5.432-8.042v-.632h.631a8.729,8.729,0,0,1,8.042,5.474,8.729,8.729,0,0,1,8.042-5.474h.632v.632a8.686,8.686,0,0,1-5.474,8.042,8.686,8.686,0,0,1,5.474,8.042Zm-8.042-8a7.534,7.534,0,0,0,6.737,6.737A7.422,7.422,0,0,0-602.189,227.095Zm-1.305-.042a7.381,7.381,0,0,0-6.695,6.737A7.531,7.531,0,0,0-603.495,227.053Zm8.042-8.042a7.534,7.534,0,0,0-6.737,6.737A7.459,7.459,0,0,0-595.453,219.011Zm-14.779,0a7.34,7.34,0,0,0,6.695,6.695A7.451,7.451,0,0,0-610.232,219.011Zm15.453,9.305h0a1.932,1.932,0,0,1-1.937-1.937,1.906,1.906,0,0,1,1.937-1.937,1.951,1.951,0,0,1,1.937,1.895,1.968,1.968,0,0,1-1.937,1.979Zm-.042-2.568a.657.657,0,0,0-.632.674.665.665,0,0,0,.674.674.665.665,0,0,0,.674-.674A.73.73,0,0,0-594.821,225.747Zm-16.084,2.568h0a1.948,1.948,0,0,1-1.347-.547,1.843,1.843,0,0,1-.547-1.347,1.948,1.948,0,0,1,.547-1.347,1.843,1.843,0,0,1,1.347-.547h0a1.959,1.959,0,0,1,1.937,1.937A1.916,1.916,0,0,1-610.905,228.316Zm0-2.568a.665.665,0,0,0-.674.674.676.676,0,0,0,.211.463.676.676,0,0,0,.463.211.665.665,0,0,0,.674-.674.665.665,0,0,0-.674-.674Zm8.084-5.474h0a1.932,1.932,0,0,1-1.937-1.937,1.932,1.932,0,0,1,1.937-1.937,1.906,1.906,0,0,1,1.937,1.937A1.959,1.959,0,0,1-602.821,220.274Zm0-2.568a.665.665,0,0,0-.674.674.665.665,0,0,0,.674.674.665.665,0,0,0,.674-.674A.723.723,0,0,0-602.821,217.705Z" transform="translate(612.8 -216.4)"/></g></svg>