<svg xmlns="http://www.w3.org/2000/svg" width="10.5" height="10.5" viewBox="0 0 10.5 10.5"><defs><style>.a{fill:#74b71b;}.b{fill:#d5e8c6;}</style></defs><g transform="translate(22929.027 -5293)"><g transform="translate(-22976.027 4533)"><path class="a" d="M5.25,0A5.25,5.25,0,1,1,0,5.25,5.25,5.25,0,0,1,5.25,0Z" transform="translate(47 760)"/><g transform="translate(48.25 761.4)"><path class="b" d="M210,287.9h0a3.4,3.4,0,0,1-3.4,3.4,3.4,3.4,0,0,1,3.4-3.4" transform="translate(-206.047 -283.956)"/><path class="b" d="M206.6,242.4h0a3.4,3.4,0,0,1,3.4,3.4,3.4,3.4,0,0,1-3.4-3.4" transform="translate(-206.047 -241.855)"/><path class="b" d="M255.5,291.4h0a3.4,3.4,0,0,1-3.4-3.4,3.392,3.392,0,0,1,3.4,3.4" transform="translate(-248.148 -284.049)"/><path class="b" d="M252.1,245.8h0a3.4,3.4,0,0,1,3.4-3.4,3.4,3.4,0,0,1-3.4,3.4" transform="translate(-248.148 -241.855)"/><path class="b" d="M245.891,235.645a.545.545,0,1,1-.545-.545.548.548,0,0,1,.545.545" transform="translate(-241.394 -235.1)"/><path class="b" d="M245.891,326.745a.545.545,0,1,1-.545-.545.548.548,0,0,1,.545.545" transform="translate(-241.394 -319.396)"/><path class="b" d="M200.291,281.145a.545.545,0,1,1-.545-.545.548.548,0,0,1,.545.545" transform="translate(-199.2 -277.202)"/><path class="b" d="M291.391,281.145a.545.545,0,1,1-.545-.545.548.548,0,0,1,.545.545" transform="translate(-283.495 -277.202)"/></g></g></g></svg>