<svg xmlns="http://www.w3.org/2000/svg" width="10.549" height="10.051" viewBox="0 0 10.549 10.051"><defs><style>.a{fill:#f0f0f0;}.b{fill:#f0d946;}</style></defs><g transform="translate(-715.293 -543)"><path class="a" d="M10.54,5.143a.189.189,0,0,0-.153-.129l-3.416-.5-1.528-3.1a.189.189,0,0,0-.338,0l-1.528,3.1-3.416.5a.189.189,0,0,0-.1.322L2.529,7.746l-.584,3.4a.189.189,0,0,0,.075.185.187.187,0,0,0,.2.014L5.275,9.741,8.33,11.347a.189.189,0,0,0,.274-.2l-.583-3.4,2.472-2.409A.189.189,0,0,0,10.54,5.143Z" transform="translate(715.293 541.682)"/><path class="b" d="M5.444,1.423a.189.189,0,0,0-.338,0l-1.528,3.1-3.416.5a.189.189,0,0,0-.1.322L2.529,7.746l-.584,3.4a.189.189,0,0,0,.075.185.187.187,0,0,0,.2.014L5.275,9.741Z" transform="translate(715.293 541.682)"/></g></svg>